<svg height="512pt" viewBox="0 0 512 512" width="512pt" xmlns="http://www.w3.org/2000/svg"><path d="m405.5 116c0 8.285156-6.714844 15-15 15s-15-6.714844-15-15v-60.878906c0-6.890625-2.832031-13.167969-7.390625-17.730469-4.558594-4.558594-10.839844-7.390625-17.730469-7.390625h-188.757812c-6.890625 0-13.167969 2.832031-17.730469 7.390625-4.558594 4.5625-7.390625 10.839844-7.390625 17.730469v60.878906c0 8.285156-6.714844 15-15 15-8.28125 0-15-6.714844-15-15v-60.878906c0-15.171875 6.199219-28.957032 16.179688-38.941406 9.984374-9.984376 23.769531-16.179688 38.941406-16.179688h188.757812c15.175782 0 28.957032 6.195312 38.941406 16.179688 9.984376 9.984374 16.179688 23.765624 16.179688 38.941406zm0 0" fill="#00465f"/><path d="m485 271.464844v225.535156c0 8.285156-6.714844 15-15 15h-428c-8.285156 0-15-6.714844-15-15v-228.457031c0-8.28125 6.714844-15 15-15 .480469 0 .957031.023437 1.429688.070312l426.628906 2.910157c8.230468.03125 14.882812 6.71875 14.882812 14.941406zm0 0" fill="#00465f"/><path d="m389.320312 16.179688c-9.984374-9.984376-23.765624-16.179688-38.941406-16.179688h-94.378906v30h94.378906c6.890625 0 13.167969 2.832031 17.730469 7.390625s7.390625 10.839844 7.390625 17.730469v60.878906c0 8.285156 6.714844 15 15 15s15-6.714844 15-15v-60.878906c0-15.171875-6.195312-28.957032-16.179688-38.941406zm0 0" fill="#002c3c"/><path d="m484.941406 271.464844c0-8.222656-6.652344-14.90625-14.882812-14.941406l-214.058594-1.460938v256.9375h214c8.285156 0 15-6.714844 15-15v-225.535156zm0 0" fill="#002c3c"/><path d="m190.585938 325.089844-179.570313-49.675782c-6.628906-1.832031-10.9765625-7.855468-10.9726562-14.414062h-.0429688v-145c0-8.285156 6.714844-15 15-15h482c8.285156 0 15 6.714844 15 15v145c0 7.21875-5.101562 13.246094-11.894531 14.675781l-185.1875 49.796875c-1.292969.34375-2.589844.507813-3.867188.511719v.015625h-115.300781c-1.8125 0-3.554688-.320312-5.164062-.910156zm0 0" fill="#007a9f"/><path d="m497 101h-241v225h55.050781v-.015625c1.277344-.003906 2.574219-.167969 3.867188-.511719l185.1875-49.796875c6.792969-1.429687 11.894531-7.457031 11.894531-14.675781v-145c0-8.285156-6.714844-15-15-15zm0 0" fill="#00607f"/><g fill-rule="evenodd"><path d="m199 264h114c8.285156 0 15 6.714844 15 15v90c0 8.285156-6.714844 15-15 15h-114c-8.285156 0-15-6.714844-15-15v-90c0-8.285156 6.714844-15 15-15zm0 0" fill="#ffef31"/><path d="m313 264h-57v120h57c8.285156 0 15-6.714844 15-15v-90c0-8.285156-6.714844-15-15-15zm0 0" fill="#ffcd00"/></g></svg>